<svg id="Capa_1" data-name="Capa 1" xmlns="http://www.w3.org/2000/svg" viewBox="0 0 1000 1000"><defs><style>.cls-1{fill:#c6c6c6;}.cls-2{fill:#0096c7;}.cls-3{fill:#fff;}</style></defs><path className="cls-1" d="M515.4,644.64c0-.27,0-.54,0-.81v1.62C515.41,645.18,515.4,644.91,515.4,644.64Z"/><path className="cls-1" d="M535.6,659.75a14.43,14.43,0,0,1-2.47.51C534,660.1,534.78,659.93,535.6,659.75Z"/><path className="cls-2" d="M505.46,475.41V758.49a30.75,30.75,0,0,1-61.5,0V475.41a30.75,30.75,0,0,1,61.5,0Z"/><path className="cls-2" d="M515.35,727.45c0-.29,0-.58.07-.86v3.34c0-.28-.06-.57-.07-.86s0-.54,0-.81S515.34,727.72,515.35,727.45Z"/><path className="cls-2" d="M529.39,712.6l-1.51.23A10.78,10.78,0,0,1,529.39,712.6Z"/><circle className="cls-2" cx="475.77" cy="338.61" r="40.61"/><path className="cls-3" d="M496.45,453.67a30.62,30.62,0,0,1,9,21.74V758.49a30.75,30.75,0,0,1-61.5,0V475.41a30.75,30.75,0,0,1,52.49-21.74Z"/><path className="cls-2" d="M483.06,117.71c-165.26,0-299.23,134-299.23,299.23a297.92,297.92,0,0,0,40,149.52v0c1.09,1.87,2.19,3.73,3.32,5.58a.05.05,0,0,0,0,0,25.75,25.75,0,0,0,20.31,9.83,25.48,25.48,0,0,0,25.66-25.3,24.83,24.83,0,0,0-2.48-10.85l0,0c-.74-1.22-1.48-2.45-2.19-3.69a247.18,247.18,0,0,1-33.77-125.11c0-137.19,111.21-248.4,248.4-248.4s248.39,111.21,248.39,248.4c0,119.15-83.91,218.71-195.85,242.81a16.33,16.33,0,0,1-4.45.64,15.75,15.75,0,0,1-15.73-14.94c0-.27,0-.54,0-.81s0-.54,0-.81V474.33a40.61,40.61,0,0,0-81.22,0V760.42a40.61,40.61,0,0,0,81.22,0V729.93c0-.28-.06-.57-.07-.86s0-.54,0-.81,0-.54,0-.81,0-.58.07-.86a15.76,15.76,0,0,1,12.46-13.76,10.78,10.78,0,0,1,1.51-.23l.13,0c143.2-22.32,252.77-146.17,252.77-295.64C782.29,251.68,648.32,117.71,483.06,117.71Zm22.4,640.78a30.75,30.75,0,0,1-61.5,0V475.41a30.75,30.75,0,0,1,61.5,0Z"/></svg>