<?xml version="1.0" encoding="utf-8"?>
<!-- Generator: Adobe Illustrator 24.2.3, SVG Export Plug-In . SVG Version: 6.00 Build 0)  -->
<svg version="1.1" id="Capa_1" xmlns="http://www.w3.org/2000/svg" xmlns:xlink="http://www.w3.org/1999/xlink" x="0px" y="0px"
	 viewBox="0 0 149 37" style="enable-background:new 0 0 149 37;" xml:space="preserve">
<style type="text/css">
	.st0{fill:#0096C7;}
	.st1{font-family:'Dongle-Light';}
	.st2{font-size:40px;}
	.st3{font-family:'Dongle-Bold';}
</style>
<g>
	<circle class="st0" cx="22.6" cy="13.6" r="1.8"/>
	<path class="st0" d="M22.9,3.8c-7.4,0-13.3,6-13.3,13.3c0,2.3,0.6,4.6,1.8,6.7l0,0c0,0.1,0.1,0.2,0.1,0.2l0,0
		c0.2,0.3,0.6,0.4,0.9,0.4c0.6,0,1.1-0.5,1.1-1.1l0,0c0-0.2,0-0.3-0.1-0.5l0,0c0-0.1-0.1-0.1-0.1-0.2c-1-1.7-1.5-3.6-1.5-5.6
		c0-6,5-11,11.1-11S34,11,34,17.1c0,5.3-3.7,9.7-8.7,10.8c-0.1,0-0.1,0-0.2,0c-0.4,0-0.7-0.3-0.7-0.7l0,0l0,0v-7.5
		c0-1-0.8-1.8-1.8-1.8s-1.8,0.8-1.8,1.8v12.7c0,1,0.8,1.8,1.8,1.8s1.8-0.8,1.8-1.8V31l0,0l0,0l0,0l0,0c0-0.3,0.3-0.6,0.6-0.6
		c0,0,0,0,0.1,0l0,0c6.4-1,11.3-6.5,11.3-13.2C36.2,9.7,30.3,3.8,22.9,3.8z M23.9,32.3c0,0.8-0.6,1.4-1.4,1.4s-1.4-0.6-1.4-1.4V19.7
		c0-0.8,0.6-1.4,1.4-1.4s1.4,0.6,1.4,1.4V32.3z"/>
</g>
<text transform="matrix(1 0 0 1 45.8888 27.3162)" class="st1 st2">Initt</text>
<text transform="matrix(1 0 0 1 90.3888 27.3162)" class="st3 st2">Soft</text>
</svg>
