<svg id="Capa_1" data-name="Capa 1" xmlns="http://www.w3.org/2000/svg" viewBox="0 0 1000 1000"><defs><style>.cls-1{fill:#001d3d;}.cls-2{fill:#c6c6c6;}.cls-3{fill:#0096c7;}.cls-4{fill:#fff;}</style></defs><rect class="cls-1" width="1000" height="1000" rx="162"/><path class="cls-2" d="M515.4,647.3c0-.27,0-.54,0-.81v1.62C515.41,647.84,515.4,647.57,515.4,647.3Z"/><path class="cls-2" d="M535.6,662.41a14.43,14.43,0,0,1-2.47.51C534,662.76,534.78,662.59,535.6,662.41Z"/><path class="cls-3" d="M505.46,478.07V761.15a30.75,30.75,0,0,1-61.5,0V478.07a30.75,30.75,0,0,1,61.5,0Z"/><path class="cls-3" d="M515.35,730.11c0-.29,0-.58.07-.86v3.34c0-.28-.06-.57-.07-.86s0-.54,0-.81S515.34,730.38,515.35,730.11Z"/><path class="cls-3" d="M529.39,715.26l-1.51.23A10.78,10.78,0,0,1,529.39,715.26Z"/><circle class="cls-3" cx="475.77" cy="341.27" r="40.61"/><path class="cls-3" d="M496.45,456.33a30.62,30.62,0,0,1,9,21.74V761.15a30.75,30.75,0,0,1-61.5,0V478.07a30.75,30.75,0,0,1,52.49-21.74Z"/><path class="cls-4" d="M483.06,120.37c-165.26,0-299.23,134-299.23,299.23a297.92,297.92,0,0,0,40,149.52v0c1.09,1.87,2.19,3.73,3.32,5.58a.05.05,0,0,0,0,0,25.75,25.75,0,0,0,20.31,9.83,25.48,25.48,0,0,0,25.66-25.3,24.83,24.83,0,0,0-2.48-10.85.08.08,0,0,0,0,0c-.74-1.22-1.48-2.45-2.19-3.69A247.18,247.18,0,0,1,234.66,419.6c0-137.19,111.21-248.4,248.4-248.4S731.45,282.41,731.45,419.6c0,119.15-83.91,218.71-195.85,242.81a16.33,16.33,0,0,1-4.45.64,15.75,15.75,0,0,1-15.73-14.94c0-.27,0-.54,0-.81s0-.54,0-.81V477a40.61,40.61,0,0,0-81.22,0V763.08a40.61,40.61,0,0,0,81.22,0V732.59c0-.28-.06-.57-.07-.86s0-.54,0-.81,0-.54,0-.81,0-.58.07-.86a15.76,15.76,0,0,1,12.46-13.76,10.78,10.78,0,0,1,1.51-.23l.13,0c143.2-22.32,252.77-146.17,252.77-295.64C782.29,254.34,648.32,120.37,483.06,120.37Zm22.4,640.78a30.75,30.75,0,0,1-61.5,0V478.07a30.75,30.75,0,0,1,61.5,0Z"/></svg>